PathFileType	4	(X/Y/Z)	Patient4_TMGait_0pt2_03_right_23.trc.trc
DataRate	CameraRate	NumFrames	NumMarkers	Units	OrigDataRate	OrigDataStartFrame	OrigNumFrames
48.275862068965	48.275862068965	6	33	mm	48.275862068965	53	       141
Frame#	Time	Sacral			L.Shoulder			Chest			R.Shoulder			Neck			R.ASIS			L.ASIS			R.Thigh.Superior			R.Thigh.Lateral			R.Thigh.Inferior			R.Patella			L.Thigh.Superior			L.Thigh.Lateral			L.Thigh.Inferior			L.Patella			L.Shank.Superior			L.Shank.Lateral			L.Shank.Inferior			R.Shank.Superior			R.Shank.Lateral			R.Shank.Inferior			R.Heel			R.Midfoot.Superior			R.Midfoot.Lateral			R.Toe			L.Heel			L.Midfoot.Lateral			L.Midfoot.Superior			L.Toe			L.Elbow			L.Wrist			R.Elbow			R.Wrist			
		X1	Y1	Z1	X2	Y2	Z2	X3	Y3	Z3	X4	Y4	Z4	X5	Y5	Z5	X6	Y6	Z6	X7	Y7	Z7	X8	Y8	Z8	X9	Y9	Z9	X10	Y10	Z10	X11	Y11	Z11	X12	Y12	Z12	X13	Y13	Z13	X14	Y14	Z14	X15	Y15	Z15	X16	Y16	Z16	X17	Y17	Z17	X18	Y18	Z18	X19	Y19	Z19	X20	Y20	Z20	X21	Y21	Z21	X22	Y22	Z22	X23	Y23	Z23	X24	Y24	Z24	X25	Y25	Z25	X26	Y26	Z26	X27	Y27	Z27	X28	Y28	Z28	X29	Y29	Z29	X30	Y30	Z30	X31	Y31	Z31	X32	Y32	Z32	X33	Y33	Z33	

53	50.237142857143	841.187454753239	984.999395537612	583.569826154751	1027.448637287093	1411.443070550345	400.475416696668	1127.119583429417	1343.752234927410	562.482365629474	1045.817900270904	1418.479335634280	736.460336373532	1005.151594914919	1476.445866818118	558.167952649558	1075.918709930268	923.332364866741	696.244210035670	1055.318271239902	949.064220541153	423.590245162382	1133.996849113785	729.912701147308	651.231451069735	1064.515377237807	609.181369123872	703.452784434914	1143.761265153826	568.139220651705	618.020562838345	1150.269926355195	471.875193996672	619.078636696390	1151.844233139505	781.595805376537	447.822762974138	1118.614107714125	645.648273621236	354.019354158181	1233.711470639643	601.638235511558	423.170783837716	1254.546337814276	511.893510999064	406.960564615699	1188.024061062238	442.793676806040	389.329511931248	1047.900792817356	406.541569562826	330.546992623325	1032.385528812722	272.435669014023	371.590273229730	1102.848440743770	383.810932005444	621.471422046578	1016.046108056232	290.439868652653	682.804776335872	1034.872465766438	194.335965568079	612.425556737628	874.741717344000	44.387365665281	580.963403918541	1045.862218803911	95.369623302480	617.441873990617	957.555981341372	37.351918404311	656.523050156327	1165.884857491449	42.637753550384	647.452288020382	840.342999494491	205.368436746747	395.320981729867	900.398936107590	168.611657149749	312.435206587690	1005.132328966044	174.098133528344	338.003111329648	1084.206529584212	65.135348409829	299.373725398587	981.908959707736	1055.504908950414	294.196845700131	1039.842276674499	802.067592350961	289.850530985327	1029.251496422925	1068.914022727822	864.569622948672	1161.699894241737	844.600932324675	875.041213831505	
54	50.257857142857	840.890574526741	983.822676144493	585.947164807455	1022.886807666614	1410.611294688923	400.531359134396	1125.231740406908	1343.594865533399	561.193044812309	1046.158601855268	1418.077418447482	736.371875435182	1002.974440763054	1475.783912626863	558.405892706795	1076.669276245632	922.820607603548	696.536152507324	1053.604372116552	948.528737922169	424.163118618638	1134.016262408541	729.012797019777	650.862524521430	1064.936437203451	608.204352454495	703.476800650203	1143.366891593698	567.175580604603	617.361424845556	1149.584236341617	470.675633784848	618.227533494761	1151.622279383810	782.920627585110	448.470271259853	1120.000116437421	646.697855640434	354.432382644847	1235.463774366606	604.089351935835	423.407181992057	1257.889991383813	515.146216891357	407.007414352108	1193.320510257105	444.946490515659	388.862796590790	1054.523130018239	404.510557291354	330.490973606868	1044.052746403281	269.935277425747	370.550654903519	1101.427466769982	382.784798069985	620.894156772648	1014.225849770537	289.920613286940	682.599200953837	1031.871827912156	193.766682861005	612.129969668144	870.623804532730	44.485139194889	581.050045542002	1041.760231505816	95.278062166154	617.360366821746	953.446874157631	37.366969243598	656.573052560609	1161.782086502469	42.361578890622	647.455759255443	855.333478302364	196.024100705159	395.039679552439	915.799968848041	162.398283924892	311.303563279922	1020.095927896496	171.290693785950	336.277604204254	1102.449192083520	66.049679252527	295.849749550614	961.773225749025	1056.220223992952	298.130069411579	997.581995559037	798.369439546547	294.799216777027	1044.097154620245	1067.683207715329	864.470981793669	1192.389885931739	853.774770849259	872.880028789382	
55	50.278571428571	840.835027555371	983.534026105416	588.200700831549	1018.422346536656	1410.614915915201	400.475675820059	1123.503670160460	1344.170242847782	559.631028218109	1046.818469362075	1418.468252914411	735.982357225630	1000.933116288998	1475.825445128281	558.463147100201	1077.516599063834	922.856872031255	696.424293135379	1051.895231794403	948.642946544704	424.371129454132	1133.340348489521	728.365155537593	650.188855298212	1064.333872043367	607.782745932759	703.462252498503	1141.657801086280	566.463286403747	616.605571632163	1147.343253299310	469.922917575110	617.382020384028	1150.546084800587	784.029234375791	448.427022085022	1119.470935802548	647.578532948621	354.374798151699	1235.105552848936	605.831687951407	422.925781010148	1258.867643385567	517.995653918331	406.462652893879	1196.821632339462	446.780519247798	387.891842169853	1060.182782339288	400.752359049649	329.748463772091	1056.216234220737	265.863922709971	368.909227886687	1098.773350891762	382.221443779259	620.381645421956	1011.512184175141	289.613537715523	682.447214879904	1028.352008302792	193.462244551345	611.920223099704	866.470334368885	44.552999012390	581.181252170428	1037.597624629915	95.190961467856	617.307122537748	949.306052852401	37.361613211861	656.650241305267	1157.641285909201	42.165005679219	647.458137923338	872.019974556748	183.386068575488	394.048867231227	933.185596554524	153.279696585837	309.627765516667	1036.748679546740	166.622565998541	334.045820475073	1123.253109162743	66.029399953840	292.222603247611	942.135800505299	1058.806894850677	301.518863533702	957.847136373472	798.675107385242	300.169800673935	1058.789899891947	1067.922036078636	863.815767813210	1222.701297324656	865.930303291316	869.612696335363	
56	50.299285714286	840.992179832758	984.114238579453	590.334744085345	1014.040140233159	1411.449549312324	400.330712676592	1121.938348412372	1345.436610155084	557.785263179590	1047.849177320584	1419.594050564351	735.301829584667	999.054540812139	1476.549282094309	558.364862668374	1078.449093776307	923.431715492075	695.866458474181	1050.141823807997	949.401647157790	424.176979423510	1131.991990052996	727.982846528298	649.219457140376	1062.738888218296	607.911390886335	703.415907726413	1138.680757396699	566.013811941489	615.775419841637	1143.608728129410	469.628604522649	616.570178245420	1148.645903235527	784.942093783040	447.755384578227	1117.194886380639	648.299173571858	353.861206050671	1232.800337350334	606.894563998490	421.825213534088	1257.650075524143	520.430965709969	405.399590646093	1198.624620300231	448.323238765857	386.503427060300	1065.016021270609	395.544068233185	328.376538905963	1068.746767467730	260.628888015978	366.793778979406	1094.936153811485	382.117713782165	619.946018026284	1007.943023959474	289.525397961883	682.361529554342	1024.333998633435	193.420723105139	611.796507197371	862.281100302164	44.591719463385	581.353893165618	1033.373283946745	95.099628760794	617.271700970361	945.134161538472	37.337263272567	656.753769753197	1153.464073655458	42.045306306204	647.458204665869	890.213854835539	168.320009431386	392.436509032521	952.330737855929	141.944614709026	307.549199530013	1054.831917865472	160.561646030993	331.483700700713	1146.117788833973	65.328352294612	288.790353893749	923.221461306019	1063.146140003863	304.400414322995	921.252486764715	802.372346617850	305.805550158695	1073.272979299134	1069.560898175068	862.696457616180	1252.193400337420	880.895516881303	865.332641448430	
57	50.320000000000	841.320983850811	985.470720560320	592.328305645002	1009.735108614793	1413.037696669860	400.106134424738	1120.529312829533	1347.292837228210	555.651931378642	1049.262276208657	1421.335345449560	734.337523961668	997.356840856747	1477.872672011092	558.124069770840	1079.446396408331	924.489203413043	694.840713871944	1048.312379387133	950.733537876235	423.561111043303	1130.034222524097	727.850926596071	647.980846467425	1060.239778518303	608.542323809677	703.337930246161	1134.561752998609	565.813884101107	614.899324193748	1138.533776207309	469.768699149857	615.818401783809	1145.981424728564	785.652509773539	446.524532669038	1113.388596531977	648.853228318892	352.922482066974	1228.778027280168	607.324384069400	420.200570234403	1254.478196896202	522.449742287841	403.902447640345	1198.873010974794	449.602986344415	384.801794976372	1069.157686498353	389.233620063773	326.464670422417	1081.433371111879	254.695874275634	364.373235609985	1090.042928586240	382.436213464323	619.594462971075	1003.608706401538	289.645881442261	682.349387910083	1019.872474604827	193.620766118978	611.753282779653	858.058620369287	44.605268243457	581.560020337374	1029.093014685974	94.997797447187	617.245150505257	940.934526279335	37.296521869445	656.880438447023	1149.255490138960	41.992809818697	647.454458624842	909.565576729765	151.822814887478	390.340905461431	972.851307938575	129.198599492772	305.253771143065	1073.945033280363	153.651598255286	328.809385874424	1170.376571436165	64.247408021810	285.878097358380	905.223379208077	1068.996936926393	306.839004756795	888.215941400162	808.720926746940	311.533203049355	1087.500790633783	1072.451386115961	861.196342395607	1280.469959584623	898.355525187434	860.149794193530	
58	50.340714285714	841.771090547111	987.447533649730	594.139303241322	1005.517594406851	1415.237321226953	399.795905498110	1119.263471942447	1349.588332301240	553.235400686757	1051.027861351749	1423.524090018054	733.093191468250	995.849449874708	1479.660707652306	557.739583641980	1080.481068415651	925.932460747762	693.348780975931	1046.395328671950	952.509248382455	422.522611052931	1127.565294217840	727.929282318940	646.513324019009	1056.974328904801	609.591092387075	703.222153229869	1129.495188497568	565.827492298367	614.007759113573	1132.349156076518	470.284295844071	615.148243069115	1142.643570640425	786.128759352107	444.801913236573	1108.298351367898	649.214609376466	351.604990667644	1223.321697064085	607.175454822151	418.131649346722	1249.643615680468	524.050785658430	402.058023059857	1197.743796144906	450.637592166327	382.896385938509	1072.716176486229	382.200934689791	324.128721392548	1093.989436676639	248.528831305628	361.835966515948	1084.285878019963	383.109114373116	619.328794026880	998.642733145696	289.948880930554	682.411639735086	1015.049506560082	194.023735974941	611.780652423903	853.808080906601	44.599622053417	581.788367272464	1024.767747782565	94.881832066609	617.220253958825	936.712604087228	37.242638323435	657.025071583365	1145.023257879235	41.993067714215	647.446039096517	929.573055441204	134.912815364904	387.933210280230	994.212556708379	115.872221314840	302.946883957431	1093.562262463054	146.441369024851	326.253356695818	1195.237683089163	63.078231277929	283.789915507602	888.303374820734	1076.018310403028	308.905940086839	858.967826914781	816.918441807293	317.180924135709	1101.434231673265	1076.383518762425	859.381912737747	1307.196874590163	917.877893705822	854.184277950655	
